# xmcd
#
# Track frame offsets: 
#        150
#        11890
#        26675
#        43596
#        65369
#        82860
#        102797
#        114816
#        129013
#        145711
#        168130
#        192346
#        208991
#        226593
#
# Disc length: 3438 seconds
#
# Revision: 0
# Processed by: cddbd v1.5.2PL0 Copyright (c) Steve Scherf et al.
# Submitted via: ExactAudioCopy v0.99pb5
#
DISCID=a60d6c0e
DTITLE=Mare Edstrom - Mare's Blues
DYEAR=2009
DGENRE=Blues
TTITLE0=That's Alright
TTITLE1=Treat Me So Low Down
TTITLE2=Walkin' Blues
TTITLE3=Broke Down Engine
TTITLE4=Big Road Blues
TTITLE5=Statesboro Blues
TTITLE6=Cherry Wine
TTITLE7=Pitch a Boogie Woogie
TTITLE8=Travelin' Blues
TTITLE9=Bring It Back Home
TTITLE10=Trouble Blues
TTITLE11=Breakfast In Bed
TTITLE12=Stop Breakin' Down Blues
TTITLE13=Fixin' To Die
EXTD=
EXTT0=
EXTT1=
EXTT2=
EXTT3=
EXTT4=
EXTT5=
EXTT6=
EXTT7=
EXTT8=
EXTT9=
EXTT10=
EXTT11=
EXTT12=
EXTT13=
PLAYORDER=
